<svg width="900" height="1100" viewBox="0 0 900 1100" fill="none" xmlns="http://www.w3.org/2000/svg">
  <rect width="900" height="1100" rx="48" fill="#FBF5EE"/>
  <rect x="54" y="54" width="792" height="992" rx="38" fill="#FFF9F3"/>
  <path d="M210 968V336C210 221.125 303.125 128 418 128H482C596.875 128 690 221.125 690 336V968" fill="#EEE0D2"/>
  <ellipse cx="452" cy="948" rx="190" ry="44" fill="#D2B27E" fill-opacity="0.34"/>
  <circle cx="451" cy="265" r="40" fill="#F0D1C9"/>
  <path d="M401 320C409.475 304.792 425.508 295 442.919 295H458.001C475.776 295 492.045 305.198 500.183 320.999L528 374L558 793H344L374 374L401 320Z" fill="#B58C50"/>
  <path d="M362 793C381.333 699 400.667 605 420 511H484C503.333 605 522.667 699 542 793H362Z" fill="#D6B375"/>
  <path d="M382 381C401.667 410.333 448 425 521 425C594 425 618.333 410.333 594 381" stroke="#F8E7C3" stroke-width="9" stroke-linecap="round"/>
  <path d="M395 451C427.667 480.333 467 495 513 495" stroke="#FFF4E0" stroke-width="5.5" stroke-linecap="round"/>
  <path d="M393 510C430.333 535.333 469 547 509 547" stroke="#F4E1B8" stroke-width="5" stroke-linecap="round"/>
</svg>
